<?xml version="1.0" encoding="UTF-8"?>
<svg xmlns="http://www.w3.org/2000/svg" xmlns:xlink="http://www.w3.org/1999/xlink" width="16px" height="16px" viewBox="0 0 16 16" version="1.1">
<g id="surface1">
<path style=" stroke:none;fill-rule:nonzero;fill:rgb(102,102,102);fill-opacity:1;" d="M 1.144531 0.0625 C 0.886719 0.140625 0.558594 0.480469 0.484375 0.75 C 0.355469 1.238281 0.683594 1.761719 1.199219 1.902344 C 1.367188 1.945312 2.875 1.96875 5.847656 1.96875 C 10.6875 1.96875 10.609375 1.964844 11.335938 2.351562 C 12 2.707031 12.628906 3.519531 12.792969 4.253906 C 12.886719 4.640625 12.875 5.453125 12.773438 5.832031 C 12.542969 6.695312 11.890625 7.339844 10.890625 7.699219 C 10.511719 7.839844 10.398438 7.847656 8.109375 7.875 C 5.828125 7.90625 5.722656 7.914062 5.5625 8.035156 C 4.976562 8.472656 4.960938 9.25 5.53125 9.636719 L 5.753906 9.785156 L 10.007812 9.785156 L 11.847656 12.714844 C 12.855469 14.320312 13.746094 15.691406 13.832031 15.761719 C 14.066406 15.9375 14.398438 16.007812 14.746094 15.945312 C 15.261719 15.847656 15.585938 15.355469 15.484375 14.8125 C 15.464844 14.707031 14.703125 13.425781 13.789062 11.96875 L 12.136719 9.328125 L 12.417969 9.167969 C 13.21875 8.730469 13.988281 7.980469 14.351562 7.28125 C 14.761719 6.5 14.863281 6.0625 14.863281 5.015625 C 14.863281 4.238281 14.835938 4.011719 14.71875 3.605469 C 14.324219 2.234375 13.359375 1.125 12.035156 0.523438 C 11.457031 0.265625 10.984375 0.136719 10.277344 0.0625 C 9.5625 -0.0117188 1.398438 -0.0117188 1.144531 0.0625 Z M 1.144531 0.0625 "/>
</g>
</svg>
